<?xml version="1.0" standalone="no"?>
<!DOCTYPE svg PUBLIC "-//W3C//DTD SVG 20010904//EN"
 "http://www.w3.org/TR/2001/REC-SVG-20010904/DTD/svg10.dtd">
<svg version="1.0" xmlns="http://www.w3.org/2000/svg"
 width="700.000000pt" height="700.000000pt" viewBox="0 0 700.000000 700.000000"
 preserveAspectRatio="xMidYMid meet">
<metadata>
Created by potrace 1.14, written by Peter Selinger 2001-2017
</metadata>
<g transform="translate(0.000000,700.000000) scale(0.100000,-0.100000)"
fill="#000000" stroke="none">
<path d="M3432 6973 c-36 -31 -19 26 -187 -630 -30 -116 -55 -214 -55 -217 0
-5 -33 -12 -95 -21 -22 -3 -62 -10 -90 -15 -27 -6 -59 -12 -70 -14 -189 -37
-487 -146 -665 -244 -47 -26 -89 -49 -95 -51 -35 -14 -229 -149 -330 -231
l-120 -96 -40 18 c-22 9 -50 18 -63 18 -56 0 -112 -56 -112 -112 0 -13 9 -41
19 -63 l18 -40 -61 -73 c-304 -366 -497 -775 -580 -1232 -9 -47 -18 -101 -20
-120 l-3 -35 -196 -50 c-111 -29 -198 -47 -200 -41 -12 35 61 460 103 601 34
114 91 276 116 332 13 28 24 55 24 58 0 15 132 269 185 355 55 91 179 269 227
326 172 206 349 377 533 515 231 174 460 302 725 407 77 30 252 89 286 97 106
23 199 51 219 67 26 21 44 70 37 104 -7 36 -45 75 -82 83 -24 5 -58 2 -105
-10 -38 -10 -82 -21 -97 -24 -52 -10 -295 -93 -397 -135 -129 -53 -280 -127
-366 -180 -37 -22 -69 -40 -71 -40 -18 0 -338 -230 -417 -298 -416 -365 -700
-751 -899 -1222 -58 -136 -132 -355 -153 -449 -2 -9 -13 -56 -24 -106 -17 -78
-38 -200 -55 -325 -3 -19 -8 -78 -12 -130 -3 -52 -7 -96 -8 -97 0 0 -46 -13
-101 -28 -58 -15 -109 -35 -122 -47 -47 -44 -36 -137 19 -171 13 -8 65 -25
116 -37 l92 -22 1 -42 c0 -49 12 -163 34 -321 19 -146 104 -479 145 -570 5
-11 18 -47 30 -80 32 -90 48 -127 124 -280 250 -505 619 -925 1108 -1259 54
-36 100 -66 103 -66 2 0 28 -15 57 -33 142 -90 428 -218 638 -286 198 -64 473
-122 647 -137 43 -4 85 -8 93 -10 8 -1 36 -3 62 -3 l46 -1 23 -95 c28 -116 55
-154 115 -162 77 -10 109 27 145 171 l21 86 42 1 c22 0 52 2 66 3 14 2 57 7
97 10 70 7 93 10 163 22 19 3 46 8 60 10 185 31 522 130 668 196 233 104 370
177 522 276 77 51 268 191 296 217 6 5 44 39 85 75 450 397 777 907 959 1497
17 56 33 114 36 130 3 15 9 42 14 58 14 45 59 310 66 390 3 38 8 81 9 95 2 14
4 43 4 66 l1 41 102 27 c61 16 111 35 125 48 42 40 39 121 -6 162 -10 9 -63
28 -119 42 l-102 27 -1 41 c-1 23 -2 55 -4 71 -7 78 -16 164 -21 191 -3 16 -7
43 -9 59 -17 144 -133 571 -185 680 -5 11 -21 49 -36 85 -105 257 -286 551
-489 795 -405 487 -949 848 -1552 1030 -146 45 -284 76 -311 70 -86 -16 -121
-112 -64 -175 23 -27 46 -36 157 -64 307 -79 532 -170 790 -319 99 -58 270
-172 335 -223 162 -130 388 -350 491 -479 35 -44 67 -82 70 -85 8 -6 179 -258
179 -263 0 -2 22 -42 49 -89 189 -328 328 -761 366 -1138 4 -36 8 -80 10 -98
3 -25 1 -33 -9 -29 -7 3 -96 26 -197 52 -101 26 -185 48 -187 50 -2 2 -6 18
-8 37 -5 32 -19 114 -29 171 -25 134 -97 365 -161 515 -65 151 -183 366 -229
416 -44 48 -106 46 -156 -4 -45 -45 -40 -85 25 -194 110 -185 197 -381 250
-564 37 -125 74 -302 65 -307 -8 -5 -75 10 -319 74 -85 22 -260 68 -388 101
-129 33 -240 63 -247 68 -11 5 -7 21 18 72 33 67 94 196 190 400 30 63 74 158
99 210 25 52 65 136 88 185 24 50 69 146 102 215 33 69 62 137 65 152 7 38
-13 84 -49 109 -42 30 -80 22 -228 -49 -273 -130 -345 -164 -600 -285 -146
-68 -312 -147 -370 -175 -58 -27 -108 -47 -111 -43 -4 3 -38 130 -77 281 -39
151 -94 364 -122 473 -28 109 -50 202 -48 206 3 8 164 -23 270 -53 170 -47
372 -131 538 -224 164 -93 160 -91 189 -86 90 17 127 127 62 187 -111 102
-580 311 -787 351 -10 2 -37 9 -59 14 -22 6 -51 13 -65 16 -84 15 -149 26
-178 30 -19 2 -35 6 -37 8 -3 2 -58 212 -89 338 -2 8 -32 121 -65 250 -69 262
-76 276 -151 286 -39 5 -49 2 -78 -23z m118 -718 c23 -88 61 -234 85 -325 23
-91 70 -273 105 -405 34 -132 68 -265 76 -295 9 -30 17 -62 19 -70 1 -9 21
-85 43 -170 77 -293 124 -475 127 -490 2 -8 19 -72 37 -143 l33 -127 -288
-288 -287 -287 1 1390 c0 765 2 1386 4 1380 2 -5 23 -82 45 -170z m-433 -392
c-3 -16 -26 -109 -52 -208 -44 -171 -71 -277 -151 -585 -46 -179 -39 -164 -71
-147 -16 8 -64 32 -108 53 -135 63 -251 118 -465 219 -113 53 -231 108 -262
122 -32 15 -58 29 -58 33 0 11 169 135 271 198 240 151 524 264 809 323 47 9
86 18 88 18 2 1 1 -11 -1 -26z m-1166 -762 c46 -21 160 -75 253 -120 93 -44
170 -81 171 -81 2 0 79 -36 171 -81 93 -44 190 -90 217 -101 26 -11 47 -27 47
-35 0 -19 -90 -365 -98 -379 -4 -6 -191 174 -429 413 -233 233 -421 423 -419
423 2 0 41 -17 87 -39z m2998 -372 c-105 -222 -204 -434 -221 -471 -18 -40
-37 -68 -46 -68 -8 0 -85 19 -171 41 -86 23 -160 42 -166 43 -61 12 -73 -2
368 440 232 232 423 422 425 421 1 -1 -83 -184 -189 -406z m-3274 279 c10 -24
47 -104 83 -178 102 -213 162 -340 192 -405 16 -33 53 -112 83 -175 30 -63 52
-118 49 -121 -5 -5 -255 -72 -352 -94 -8 -2 -67 -18 -130 -34 -207 -55 -466
-121 -477 -121 -12 0 -5 44 31 195 63 259 166 501 313 730 54 83 174 245 183
245 3 0 15 -19 25 -42z m1385 -1223 l285 -285 -1390 1 c-765 0 -1385 2 -1380
4 6 2 80 22 165 44 290 75 564 146 760 197 52 14 102 27 110 29 57 13 967 250
1060 275 36 10 74 19 85 19 14 1 112 -91 305 -284z m3345 -296 c-31 -10 -839
-219 -865 -224 -8 -2 -100 -26 -205 -53 -212 -56 -502 -132 -525 -138 -8 -2
-42 -10 -75 -19 -33 -8 -71 -18 -85 -21 -14 -2 -34 -8 -45 -11 -11 -4 -24 -8
-30 -9 -5 -1 -85 -21 -177 -45 l-168 -44 -287 288 -287 287 1389 -1 c844 -1
1378 -5 1360 -10z m-2906 -1536 c0 -859 -4 -1377 -10 -1358 -5 17 -11 39 -13
50 -2 11 -12 47 -21 80 -9 33 -18 68 -20 77 -2 10 -15 59 -29 110 -14 51 -53
201 -87 333 -76 298 -134 521 -239 925 -45 173 -98 379 -118 458 l-37 142 285
285 c157 157 286 285 287 285 2 0 3 -624 2 -1387z m-2626 1234 c7 -3 14 -20
15 -38 4 -51 20 -143 43 -239 100 -421 275 -771 554 -1110 l62 -75 -18 -40
c-33 -72 -18 -130 42 -161 37 -19 65 -17 116 5 l42 19 28 -26 c52 -48 217
-175 298 -227 324 -212 709 -355 1093 -409 19 -2 35 -6 37 -8 1 -2 25 -88 52
-193 41 -157 47 -191 35 -196 -12 -4 -150 10 -247 26 -133 22 -185 32 -274 56
-445 120 -790 291 -1134 563 -558 442 -954 1093 -1082 1781 -10 50 -18 97 -20
105 -3 17 -24 177 -29 227 -2 18 -2 34 1 36 3 4 354 -84 386 -96z m5643 76
c-2 -16 -7 -59 -11 -98 -5 -62 -11 -102 -30 -210 -50 -291 -183 -668 -316
-897 -22 -36 -39 -69 -39 -73 0 -28 -284 -419 -362 -498 -13 -13 -44 -46 -69
-73 -88 -93 -231 -225 -304 -279 -22 -17 -42 -32 -45 -36 -13 -15 -215 -152
-294 -199 -278 -167 -688 -322 -965 -366 -18 -3 -43 -8 -55 -10 -80 -17 -289
-41 -304 -36 -7 2 -10 7 -8 11 3 4 7 18 10 32 18 91 90 345 99 351 7 4 26 8
42 9 17 0 37 2 45 4 8 1 35 6 60 10 58 9 302 71 360 92 213 76 415 171 563
265 82 52 293 206 325 237 54 52 55 52 97 31 22 -11 50 -20 63 -20 56 0 112
56 112 112 0 13 -9 41 -19 63 l-18 40 82 100 c305 375 489 784 570 1265 9 52
17 95 18 96 1 1 74 20 162 43 88 22 174 45 190 50 45 14 46 13 41 -16z m-5167
-199 c119 -31 320 -83 446 -115 127 -33 241 -63 255 -65 14 -3 28 -8 32 -12 3
-4 -13 -47 -37 -97 -74 -152 -185 -387 -185 -390 0 -2 -38 -84 -85 -182 -47
-98 -93 -195 -103 -215 -9 -21 -20 -38 -23 -38 -4 0 -19 17 -35 38 -15 20 -31
39 -34 42 -15 12 -125 180 -176 267 -121 210 -236 514 -269 713 -3 19 -10 52
-14 73 -6 25 -5 37 2 37 6 0 107 -25 226 -56z m4520 -36 c-30 -147 -86 -339
-125 -425 -8 -17 -14 -34 -14 -38 0 -12 -117 -242 -156 -307 -46 -76 -191
-283 -211 -299 -7 -7 -15 -10 -17 -8 -3 4 -44 91 -149 314 -29 60 -104 220
-168 355 -85 179 -113 247 -104 252 11 7 359 100 421 113 12 3 90 23 175 46
85 22 163 42 174 45 11 2 52 13 90 23 111 30 105 36 84 -71z m-3439 -244 c52
-14 106 -28 120 -30 14 -3 55 -14 92 -25 l67 -20 -420 -420 c-231 -231 -422
-419 -424 -417 -2 3 10 30 152 326 40 85 73 155 73 157 0 1 38 81 84 177 46
96 94 198 106 226 14 32 29 52 39 52 9 0 59 -12 111 -26z m2503 -716 c114
-114 197 -204 185 -199 -22 8 -62 27 -328 153 -58 28 -130 61 -160 75 -30 14
-117 56 -195 92 -77 37 -164 78 -192 91 -29 13 -53 30 -53 38 0 12 83 343 95
380 3 7 98 -81 222 -205 120 -120 311 -311 426 -425z m-2015 -153 c23 -88 48
-187 57 -220 19 -72 125 -484 130 -505 2 -8 7 -29 10 -47 l7 -31 -109 23
c-366 77 -680 219 -970 436 -51 39 -93 74 -93 78 0 5 22 18 49 30 28 12 125
57 217 101 91 44 168 80 169 80 2 0 81 37 177 83 95 46 202 97 238 114 36 17
68 28 71 24 4 -3 25 -78 47 -166z m1337 115 c50 -24 150 -71 224 -106 73 -35
135 -64 136 -64 1 0 76 -35 166 -78 90 -43 188 -89 217 -102 28 -13 52 -27 52
-31 0 -8 -160 -129 -242 -181 -216 -141 -476 -252 -732 -313 -149 -36 -196
-44 -196 -33 0 6 32 135 71 287 40 152 94 362 120 466 60 233 55 218 76 207
10 -5 59 -29 108 -52z"/>
</g>
</svg>
